<svg xmlns="http://www.w3.org/2000/svg" viewBox="0 0 497.82 114.73"><defs><style>.cls-1{fill:#fff;}.cls-2{fill:#1976d2;}</style></defs><g id="Layer_1" data-name="Layer 1"><g id="Onion"><path id="Flesh" class="cls-1" d="M316.14,71.34a1.27,1.27,0,0,0,.44-.51,4.84,4.84,0,0,0,.61-2.39c-.12-6.79-.23-12.88-4-14.46-4.05-1.72-9.38,3.14-10.71,4.35a19.94,19.94,0,0,0-6.18,12.34c-.09,1-.75,9.34,5.46,15.41s15.46,6.06,21.73,3.53a22.25,22.25,0,0,0,11.12-10.45c5.31-10,1.61-20.31.85-22.3-5-12.9-19.38-20.75-32.85-20.08-2.17.11-15.82,1-24.17,12.42a30.6,30.6,0,0,0-5.71,18.16c.15,16.14,13.38,29.51,26.22,34.7,12.62,5.1,24,2.76,28.79,1.65s17.12-4,25.53-15.08a34.47,34.47,0,0,0,7.24-18.46,34.79,34.79,0,0,0-3.42-17.32c-1.11-2.3-6.16-12.09-17-17-10.41-4.68-18.84-1.52-21.72-6.77a8.51,8.51,0,0,1-.4-6.21A1,1,0,0,0,317,21.63l-1.59,0a1.07,1.07,0,0,0-1,.8c-.66,2.51-1.12,6,.51,9.17,3.86,7.44,14.76,3.67,25.45,11.14,8.29,5.79,14.14,16.69,13.21,27.29a28.06,28.06,0,0,1-6,14.65c-7,9-17,11.29-21.83,12.38-4,.9-13.18,2.87-23.53-.93-2.65-1-20.33-8.29-22.38-25C278.49,60.55,285.72,48.9,297,44.93c13-4.6,27.26,2.75,32.09,13.26.58,1.25,4.85,10.93-.59,18.72-4.05,5.79-13.07,9.94-19.77,6a13.48,13.48,0,0,1-5.94-14.67c1.42-5,6.37-8.72,8.13-7.84s2.94,6.14,3.05,9.85A1.39,1.39,0,0,0,316.14,71.34Z"/><path id="Stem" class="cls-2" d="M302.76,27.14l-4.17,1.27a1.16,1.16,0,0,1-1.49-.93l-.11-.72a27.06,27.06,0,0,0-4.53-11.09,1.14,1.14,0,0,1,.36-1.63l1.06-.63a1.16,1.16,0,0,1,1.53.32c.41.58.82,1.17,1.23,1.78l1.48,2.2C301.19,7.27,309.91.12,319,0c11.88-.16,19.38,10.67,21.78,17.63a23.22,23.22,0,0,1,.93,3.64.9.9,0,0,1-1.13,1l-2.66-.73a1.5,1.5,0,0,1-1.06-1.08,19.24,19.24,0,0,0-1.89-4.8c-3-5.44-9.67-11.21-16.55-10.59-7.74.7-15.22,9.46-14.85,20.91A1.14,1.14,0,0,1,302.76,27.14Z"/></g><path class="cls-1" d="M393.54,97.25V65.34c0-3.36-.65-5.81-1.93-7.3s-3.13-2.19-5.68-2.19A11.9,11.9,0,0,0,378.87,58,24.7,24.7,0,0,0,373,64.47V97.25h-6.53V51.19h5.8l.41,6.16A20.91,20.91,0,0,1,378,52.62a16.87,16.87,0,0,1,8.83-2.36c4.24,0,7.55,1.29,9.82,3.83s3.39,6.08,3.39,10.57V97.25Z"/><path class="cls-1" d="M407.57,97.25V51.19h6.53V97.25Zm3.18-56.87a4.34,4.34,0,0,1-3.2-1.25,4.48,4.48,0,0,1,0-6.23,4.31,4.31,0,0,1,3.2-1.26A4.43,4.43,0,0,1,414,32.9a4.48,4.48,0,0,1,0,6.23A4.46,4.46,0,0,1,410.75,40.38Z"/><path class="cls-1" d="M439.31,98.18c-6.12,0-11-2.17-14.44-6.46s-5.15-10.11-5.15-17.46a31.71,31.71,0,0,1,2.36-12.64,18.9,18.9,0,0,1,6.84-8.43,18.64,18.64,0,0,1,10.47-2.93c6.12,0,11,2.14,14.43,6.37S459,66.68,459,74.09s-1.77,13.26-5.24,17.55S445.37,98.18,439.31,98.18ZM439.39,56A10.89,10.89,0,0,0,430,60.54c-2.27,3.08-3.42,7.69-3.42,13.72S427.73,84.82,430,87.9a10.77,10.77,0,0,0,9.34,4.52,11,11,0,0,0,9.43-4.53c2.29-3.07,3.45-7.72,3.45-13.8s-1.13-10.54-3.37-13.59S443.52,56,439.39,56Z"/><path class="cls-1" d="M491.29,97.25V65.34c0-3.36-.65-5.81-1.93-7.3s-3.13-2.19-5.68-2.19A11.9,11.9,0,0,0,476.62,58a24.69,24.69,0,0,0-5.91,6.43V97.25h-6.53V51.19H470l.42,6.16a20.91,20.91,0,0,1,5.39-4.73,16.87,16.87,0,0,1,8.83-2.36c4.24,0,7.55,1.29,9.82,3.83s3.39,6.08,3.39,10.57V97.25Z"/><path class="cls-1" d="M19.73,98.18A27,27,0,0,1,.57,90.65L0,90.12l3.93-4.4.6.51a27.63,27.63,0,0,0,7,4.51,20.39,20.39,0,0,0,8.1,1.51,14.69,14.69,0,0,0,9.72-3.13A10.3,10.3,0,0,0,33,80.72a10.93,10.93,0,0,0-1.21-5.46,10.15,10.15,0,0,0-3.95-3.66,44.43,44.43,0,0,0-8.14-3.29c-6-1.84-10.42-4-13-6.47s-4.08-6-4.08-10.27a13.86,13.86,0,0,1,2.3-7.8,15.37,15.37,0,0,1,6.36-5.38,21.53,21.53,0,0,1,9.23-1.9A25.42,25.42,0,0,1,30,38.12a26.75,26.75,0,0,1,7.76,5l.6.55-4.05,4.38-.58-.49a23.53,23.53,0,0,0-6.25-4,18.08,18.08,0,0,0-6.83-1.22,12.81,12.81,0,0,0-8.26,2.5,7.93,7.93,0,0,0-3,6.56,8.76,8.76,0,0,0,1.11,4.64,10,10,0,0,0,3.82,3.29,45.54,45.54,0,0,0,8.1,3.12,47.72,47.72,0,0,1,9.51,3.9A15.76,15.76,0,0,1,37.75,72a16.31,16.31,0,0,1,2.08,8.57,17.11,17.11,0,0,1-2.51,9.18A16.8,16.8,0,0,1,30.24,96,24,24,0,0,1,19.73,98.18Z"/><path class="cls-1" d="M62,98.18c-6.11,0-11-2.13-14.47-6.32s-5.2-10-5.2-17.26a33.48,33.48,0,0,1,2.23-12.67A19.52,19.52,0,0,1,51,53.34a16.36,16.36,0,0,1,9.86-3.08c5.9,0,10.46,2,13.55,6.05S79,65.73,79,72.56a35.69,35.69,0,0,1-.18,3.65l-.07.72H49.22c.36,5.15,1.66,9,3.88,11.55a11.45,11.45,0,0,0,9.13,3.94,15.86,15.86,0,0,0,5.87-1,26.08,26.08,0,0,0,5.64-3.26l.65-.47,3.21,4.4-.58.48a26.38,26.38,0,0,1-7,4.21A22,22,0,0,1,62,98.18ZM72.56,71.51V71c0-4.79-1-8.56-2.94-11.21S64.88,55.94,61,55.94a10,10,0,0,0-8.3,4c-2,2.55-3.23,6.45-3.53,11.62Z"/><path class="cls-1" d="M101.58,98.18a19,19,0,0,1-10.37-2.84,18.68,18.68,0,0,1-6.89-8.21,30.41,30.41,0,0,1-2.41-12.61,31.29,31.29,0,0,1,2.41-12.69,19.53,19.53,0,0,1,6.87-8.54,18,18,0,0,1,10.31-3,21.28,21.28,0,0,1,7.07,1.1,19.8,19.8,0,0,1,6,3.59l.58.49-3.43,4.49-.64-.52a15.16,15.16,0,0,0-4.32-2.5,14.81,14.81,0,0,0-5-.8,11.12,11.12,0,0,0-9.39,4.57c-2.37,3.1-3.58,7.73-3.58,13.75S90,84.92,92.31,87.87a11.2,11.2,0,0,0,9.36,4.38,14,14,0,0,0,5.11-.89,19.71,19.71,0,0,0,4.69-2.69l.65-.5,3.29,4.58-.56.48A20,20,0,0,1,101.58,98.18Z"/><path class="cls-1" d="M131.42,98.18c-4.24,0-7.57-1.27-9.9-3.78S118,88.33,118,83.78V51.19h6.53V83.27c0,3.24.66,5.62,2,7.08s3.3,2.15,6,2.15c4.85,0,8.84-2.78,12.21-8.51V51.19h6.53V97.25h-5.83l-.2-6.19A16.48,16.48,0,0,1,131.42,98.18Z"/><path class="cls-1" d="M157.05,97.25V51.19h5.82l.3,7a15.61,15.61,0,0,1,3.72-5,12.17,12.17,0,0,1,8.22-2.87,17.19,17.19,0,0,1,4.64.54l.71.2-1.25,6.24-.83-.23a14,14,0,0,0-3.7-.48,8.2,8.2,0,0,0-6.65,3c-1.75,2.07-3.24,5.38-4.45,9.83v27.9Z"/><path class="cls-1" d="M184.08,97.25V51.19h6.53V97.25Zm3.18-56.87a4.36,4.36,0,0,1-3.2-1.25,4.51,4.51,0,0,1,0-6.23,4.33,4.33,0,0,1,3.2-1.26,4.45,4.45,0,0,1,3.29,1.26,4.51,4.51,0,0,1,0,6.23A4.49,4.49,0,0,1,187.26,40.38Z"/><path class="cls-1" d="M214,98.18a11.36,11.36,0,0,1-8.57-3.26c-2.07-2.16-3.11-5.27-3.11-9.27V56.79h-7.48v-5.6h7.48V40.66l6.53-.79V51.19h11.6l-.83,5.6H208.89V85.4c0,2.4.48,4.18,1.42,5.3a5.3,5.3,0,0,0,4.32,1.63,12.75,12.75,0,0,0,6.4-1.85l.7-.4,2.72,4.75-.62.41A17.5,17.5,0,0,1,214,98.18Z"/><path class="cls-1" d="M225.47,109.36l.7-.17a23.19,23.19,0,0,0,6.68-2.62,11.79,11.79,0,0,0,3.75-3.79,32.23,32.23,0,0,0,2.56-5.53H238L222,51.19h7.05l12.85,39,12.6-39h6.88L245.82,96.87a41,41,0,0,1-4,8.68,18.64,18.64,0,0,1-5.77,5.72,25.54,25.54,0,0,1-9,3.3l-.83.16Z"/></g></svg>